<svg viewBox="0 0 30 30" fill="none" xmlns="http://www.w3.org/2000/svg">
<path d="M12.9247 15.7725C12.9247 16.7112 12.1642 17.4732 11.2255 17.4732C10.2869 17.4732 9.52544 16.7118 9.52544 15.7725C9.52544 14.8338 10.2868 14.0724 11.2255 14.0724C12.1642 14.073 12.9247 14.8338 12.9247 15.7725ZM21.7755 14.073C20.8363 14.073 20.0763 14.8344 20.0763 15.7731C20.0763 16.7118 20.8366 17.4738 21.7755 17.4738C22.7147 17.4738 23.4756 16.7124 23.4756 15.7731C23.4756 14.8339 22.7147 14.073 21.7755 14.073ZM25.7265 19.5671C26.6857 18.0849 27.7732 16.4048 29.4053 14.6511C29.6447 14.3935 29.6986 14.0144 29.5401 13.7007L28.1034 10.8519C28.6545 9.55398 29.8486 6.17988 27.954 5.01123C27.5579 4.76689 27.0724 4.64296 26.5114 4.64296C24.9619 4.64296 23.0699 5.59426 22.191 6.08904C21.318 5.57048 19.3182 4.60779 16.501 4.60779C13.6836 4.60779 11.684 5.57049 10.811 6.08904C9.93177 5.59421 8.03982 4.64296 6.49062 4.64296C5.92958 4.64296 5.44384 4.76689 5.04807 5.01123C3.15311 6.18018 4.34699 9.55398 4.89807 10.8519L3.46137 13.7007C3.30316 14.0147 3.35678 14.3935 3.59613 14.6511C5.22858 16.4051 6.31608 18.0849 7.27496 19.5671C9.38141 22.8222 11.0454 25.3937 16.5007 25.3937C21.956 25.3937 23.6199 22.8223 25.7272 19.5671H25.7265ZM6.57674 11.2526C6.69217 11.0232 6.69657 10.7531 6.58846 10.5196C5.83963 8.90707 5.38846 6.7737 5.92957 6.43995C6.05467 6.36261 6.2489 6.32188 6.48973 6.32188C7.75655 6.32188 9.73288 7.38036 10.3877 7.78821C10.6821 7.97131 11.0612 7.95315 11.339 7.74544C11.3583 7.73079 13.3221 6.28646 16.5005 6.28646C19.6786 6.28646 21.6421 7.73081 21.6588 7.74311C21.9368 7.95551 22.3174 7.97338 22.6135 7.78764C23.2666 7.37983 25.2394 6.32132 26.5112 6.32132C26.7526 6.32132 26.9463 6.36204 27.072 6.43938C27.6128 6.77278 27.1619 8.90651 26.4131 10.519C26.3053 10.7522 26.3088 11.022 26.4248 11.252L27.7806 13.94C26.2674 15.6389 25.2359 17.2333 24.3165 18.6533C22.2743 21.8086 21.0414 23.7132 16.5008 23.7132C11.9601 23.7132 10.727 21.8089 8.68503 18.6539C7.76598 17.2342 6.73413 15.6398 5.22093 13.9406L6.57674 11.2526ZM18.513 18.4335L14.4882 18.4332L16.5003 20.4456L18.513 18.4335ZM16.6489 20.5944L18.661 18.5823C18.721 18.5223 18.7392 18.432 18.7064 18.3535C18.6742 18.275 18.5971 18.2237 18.5124 18.2237L14.4876 18.2234C14.4027 18.2234 14.3259 18.2747 14.2937 18.3532C14.2609 18.4317 14.279 18.522 14.3391 18.582L16.3518 20.5947C16.3914 20.6343 16.4447 20.656 16.5003 20.656C16.5563 20.6557 16.6096 20.6337 16.6489 20.5944L16.6489 20.5944ZM18.0056 18.6432L16.5004 20.1488L14.9951 18.6432H18.0056Z" fill="black"/>
</svg>
